<svg xmlns="http://www.w3.org/2000/svg" width="36" height="36" viewBox="0 0 36 36">
    <g fill="none" fill-rule="evenodd">
        <g>
            <g>
                <g>
                    <g>
                        <g>
                            <path d="M0 0H36V36H0z" transform="translate(-1314 -1009) translate(100 899) translate(0 100) translate(1214 10) matrix(-1 0 0 1 36 0)"/>
                            <path fill="#5F0080" fill-rule="nonzero" d="M11.2 23.887c1.657 0 3 1.344 3 3 0 1.657-1.343 3-3 3s-3-1.343-3-3c0-1.656 1.343-3 3-3zm11.3 0c1.598 0 2.904 1.25 2.995 2.824l.005.176-.005.177c-.091 1.574-1.397 2.823-2.995 2.823-1.657 0-3-1.343-3-3 0-1.656 1.343-3 3-3zm-11.3 2c-.552 0-1 .448-1 1 0 .553.448 1 1 1s1-.447 1-1c0-.552-.448-1-1-1zm11.3 0c-.552 0-1 .448-1 1 0 .553.448 1 1 1 .513 0 .935-.386.993-.883l.007-.117-.007-.116c-.058-.497-.48-.884-.993-.884zM31.393 4.55c.553 0 1 .448 1 1 0 .513-.386.936-.883.993l-.117.007h-2.955l-3.256 14.878c-.093.42-.442.73-.861.78l-.116.006H9.595c-.413 0-.779-.252-.929-.628l-.038-.116L5.566 9.88c-.158-.596.257-1.182.853-1.248l.114-.007h19.403l.72-3.289c.093-.42.442-.73.862-.78l.116-.006h3.76zm-5.895 6.075H7.831l2.533 9.589h13.035l2.099-9.589z" transform="translate(-1314 -1009) translate(100 899) translate(0 100) translate(1214 10) matrix(-1 0 0 1 36 0)"/>
                        </g>
                    </g>
                </g>
            </g>
        </g>
    </g>
</svg>
